<svg version="1.1" xmlns="http://www.w3.org/2000/svg" viewBox="-1.5 -1.5 8 8" fill="hsl(240.0 80% 75%)"><rect x="-1.5" y="-1.5" width="100%" height="100%" fill="hsl(240.0 64.0% 90.0%)"/><rect x="0" y="4" width="1" height="1"/><rect x="1" y="0" width="1" height="1"/><rect x="1" y="1" width="1" height="1"/><rect x="1" y="3" width="1" height="1"/><rect x="1" y="4" width="1" height="1"/><rect x="2" y="0" width="1" height="1"/><rect x="2" y="1" width="1" height="1"/><rect x="2" y="3" width="1" height="1"/><rect x="2" y="4" width="1" height="1"/><rect x="4" y="4" width="1" height="1"/><rect x="3" y="0" width="1" height="1"/><rect x="3" y="1" width="1" height="1"/><rect x="3" y="3" width="1" height="1"/><rect x="3" y="4" width="1" height="1"/></svg>